<?xml version="1.0" standalone="no"?>
<!DOCTYPE svg PUBLIC "-//W3C//DTD SVG 20010904//EN"
 "http://www.w3.org/TR/2001/REC-SVG-20010904/DTD/svg10.dtd">
<svg version="1.0" xmlns="http://www.w3.org/2000/svg"
 width="700.000000pt" height="700.000000pt" viewBox="0 0 700.000000 700.000000"
 preserveAspectRatio="xMidYMid meet">
<metadata>
Created by potrace 1.11, written by Peter Selinger 2001-2013
</metadata>
<g transform="translate(0.000000,700.000000) scale(0.100000,-0.100000)"
fill="#000000" stroke="none">
<path d="M396 6984 c-140 -33 -275 -143 -340 -276 -20 -40 -39 -86 -43 -103
-4 -16 -8 -1190 -9 -2607 -2 -2042 0 -2588 10 -2630 33 -138 126 -261 254
-334 122 -70 64 -67 1222 -68 l1045 -1 0 -240 0 -240 -310 -1 c-171 -1 -330
-4 -354 -7 -64 -9 -143 -51 -196 -105 -75 -75 -105 -158 -105 -289 l0 -82
1931 0 1930 0 -2 92 c-2 97 -18 158 -55 219 -56 88 -158 155 -256 165 -29 4
-188 6 -353 7 l-300 0 1 230 c1 127 2 236 3 242 1 7 307 10 1034 10 1126 0
1107 -1 1212 58 141 78 229 189 270 339 11 39 13 528 13 2610 0 1517 -3 2582
-9 2612 -14 79 -74 189 -137 254 -60 61 -117 99 -204 134 l-53 21 -3070 2
c-2588 1 -3079 0 -3129 -12z"/>
</g>
</svg>
